<svg width="2075" height="1181" xmlns="http://www.w3.org/2000/svg" xmlns:xlink="http://www.w3.org/1999/xlink" overflow="hidden"><defs><clipPath id="clip0"><rect x="-4" y="-4" width="2075" height="1181"/></clipPath><clipPath id="clip1"><rect x="0" y="0" width="2068" height="1175"/></clipPath><clipPath id="clip2"><rect x="302" y="176" width="1719" height="803"/></clipPath><clipPath id="clip3"><rect x="0" y="0" width="2068" height="1175"/></clipPath><clipPath id="clip4"><rect x="0" y="0" width="2068" height="1175"/></clipPath><clipPath id="clip5"><rect x="0" y="0" width="2068" height="1175"/></clipPath><clipPath id="clip6"><rect x="0" y="0" width="2068" height="1175"/></clipPath><clipPath id="clip7"><rect x="0" y="0" width="2068" height="1175"/></clipPath><clipPath id="clip8"><rect x="0" y="0" width="2068" height="1175"/></clipPath><clipPath id="clip9"><rect x="0" y="0" width="2068" height="1175"/></clipPath><clipPath id="clip10"><rect x="0" y="0" width="2068" height="1175"/></clipPath><clipPath id="clip11"><rect x="0" y="0" width="2068" height="1175"/></clipPath><clipPath id="clip12"><rect x="0" y="0" width="2068" height="1175"/></clipPath><clipPath id="clip13"><rect x="0" y="0" width="2068" height="1175"/></clipPath><clipPath id="clip14"><rect x="0" y="0" width="2068" height="1175"/></clipPath><clipPath id="clip15"><rect x="0" y="0" width="2068" height="1175"/></clipPath><clipPath id="clip16"><rect x="0" y="0" width="2068" height="1175"/></clipPath><clipPath id="clip17"><rect x="0" y="0" width="2068" height="1175"/></clipPath><clipPath id="clip18"><rect x="0" y="0" width="2068" height="1175"/></clipPath><clipPath id="clip19"><rect x="0" y="0" width="2068" height="1175"/></clipPath><clipPath id="clip20"><rect x="0" y="0" width="2068" height="1175"/></clipPath></defs><g clip-path="url(#clip0)" transform="translate(4 4)"><rect x="0" y="0" width="2068" height="1175" fill="#FFFFFF" fill-opacity="1"/><g clip-path="url(#clip1)"><path d="M302.5 887.529 2018.5 887.529M302.5 798.526 2018.5 798.526M302.5 709.523 2018.5 709.523M302.5 620.521 2018.5 620.521M302.5 531.518 2018.5 531.518M302.5 442.515 2018.5 442.515M302.5 353.512 2018.5 353.512M302.5 264.509 2018.5 264.509M302.5 176.5 2018.5 176.5" stroke="#D9D9D9" stroke-width="3.4375" stroke-linecap="butt" stroke-linejoin="round" stroke-miterlimit="10" stroke-opacity="1" fill="none" fill-rule="nonzero"/></g><g clip-path="url(#clip2)"><path d="M449.015 279.009 584.019 279.009 584.019 976 449.015 976ZM878.029 592.019 1013.03 592.019 1013.03 976 878.029 976ZM1307.04 647.021 1442.05 647.021 1442.05 976 1307.04 976ZM1736.06 763.025 1871.06 763.025 1871.06 976 1736.06 976Z" fill="#548235" fill-rule="nonzero" fill-opacity="1"/></g><g clip-path="url(#clip3)"><path d="M302.5 976.5 2018.5 976.5" stroke="#D9D9D9" stroke-width="3.4375" stroke-linecap="butt" stroke-linejoin="round" stroke-miterlimit="10" stroke-opacity="1" fill="none" fill-rule="evenodd"/></g><g clip-path="url(#clip4)"><text fill="#595959" fill-opacity="1" font-family="Calibri,Calibri_MSFontService,sans-serif" font-style="normal" font-variant="normal" font-weight="400" font-stretch="normal" font-size="55" text-anchor="start" direction="ltr" writing-mode="lr-tb" unicode-bidi="normal" text-decoration="none" transform="matrix(1 0 0 1 182.852 991)">$0</text></g><g clip-path="url(#clip5)"><text fill="#595959" fill-opacity="1" font-family="Calibri,Calibri_MSFontService,sans-serif" font-style="normal" font-variant="normal" font-weight="400" font-stretch="normal" font-size="55" text-anchor="start" direction="ltr" writing-mode="lr-tb" unicode-bidi="normal" text-decoration="none" transform="matrix(1 0 0 1 57.6583 902)">$20,000</text></g><g clip-path="url(#clip6)"><text fill="#595959" fill-opacity="1" font-family="Calibri,Calibri_MSFontService,sans-serif" font-style="normal" font-variant="normal" font-weight="400" font-stretch="normal" font-size="55" text-anchor="start" direction="ltr" writing-mode="lr-tb" unicode-bidi="normal" text-decoration="none" transform="matrix(1 0 0 1 57.6583 813)">$40,000</text></g><g clip-path="url(#clip7)"><text fill="#595959" fill-opacity="1" font-family="Calibri,Calibri_MSFontService,sans-serif" font-style="normal" font-variant="normal" font-weight="400" font-stretch="normal" font-size="55" text-anchor="start" direction="ltr" writing-mode="lr-tb" unicode-bidi="normal" text-decoration="none" transform="matrix(1 0 0 1 57.6583 724)">$60,000</text></g><g clip-path="url(#clip8)"><text fill="#595959" fill-opacity="1" font-family="Calibri,Calibri_MSFontService,sans-serif" font-style="normal" font-variant="normal" font-weight="400" font-stretch="normal" font-size="55" text-anchor="start" direction="ltr" writing-mode="lr-tb" unicode-bidi="normal" text-decoration="none" transform="matrix(1 0 0 1 57.6583 635)">$80,000</text></g><g clip-path="url(#clip9)"><text fill="#595959" fill-opacity="1" font-family="Calibri,Calibri_MSFontService,sans-serif" font-style="normal" font-variant="normal" font-weight="400" font-stretch="normal" font-size="55" text-anchor="start" direction="ltr" writing-mode="lr-tb" unicode-bidi="normal" text-decoration="none" transform="matrix(1 0 0 1 29.7917 546)">$100,000</text></g><g clip-path="url(#clip10)"><text fill="#595959" fill-opacity="1" font-family="Calibri,Calibri_MSFontService,sans-serif" font-style="normal" font-variant="normal" font-weight="400" font-stretch="normal" font-size="55" text-anchor="start" direction="ltr" writing-mode="lr-tb" unicode-bidi="normal" text-decoration="none" transform="matrix(1 0 0 1 29.7917 457)">$120,000</text></g><g clip-path="url(#clip11)"><text fill="#595959" fill-opacity="1" font-family="Calibri,Calibri_MSFontService,sans-serif" font-style="normal" font-variant="normal" font-weight="400" font-stretch="normal" font-size="55" text-anchor="start" direction="ltr" writing-mode="lr-tb" unicode-bidi="normal" text-decoration="none" transform="matrix(1 0 0 1 29.7917 369)">$140,000</text></g><g clip-path="url(#clip12)"><text fill="#595959" fill-opacity="1" font-family="Calibri,Calibri_MSFontService,sans-serif" font-style="normal" font-variant="normal" font-weight="400" font-stretch="normal" font-size="55" text-anchor="start" direction="ltr" writing-mode="lr-tb" unicode-bidi="normal" text-decoration="none" transform="matrix(1 0 0 1 29.7917 280)">$160,000</text></g><g clip-path="url(#clip13)"><text fill="#595959" fill-opacity="1" font-family="Calibri,Calibri_MSFontService,sans-serif" font-style="normal" font-variant="normal" font-weight="400" font-stretch="normal" font-size="55" text-anchor="start" direction="ltr" writing-mode="lr-tb" unicode-bidi="normal" text-decoration="none" transform="matrix(1 0 0 1 29.7917 191)">$180,000</text></g><g clip-path="url(#clip14)"><text fill="#595959" fill-opacity="1" font-family="Calibri,Calibri_MSFontService,sans-serif" font-style="normal" font-variant="normal" font-weight="400" font-stretch="normal" font-size="55" text-anchor="start" direction="ltr" writing-mode="lr-tb" unicode-bidi="normal" text-decoration="none" transform="matrix(1 0 0 1 329.418 1063)">Japanese Mobile</text></g><g clip-path="url(#clip15)"><text fill="#595959" fill-opacity="1" font-family="Calibri,Calibri_MSFontService,sans-serif" font-style="normal" font-variant="normal" font-weight="400" font-stretch="normal" font-size="55" text-anchor="start" direction="ltr" writing-mode="lr-tb" unicode-bidi="normal" text-decoration="none" transform="matrix(1 0 0 1 366.978 1130)">App Engineer</text></g><g clip-path="url(#clip16)"><text fill="#595959" fill-opacity="1" font-family="Calibri,Calibri_MSFontService,sans-serif" font-style="normal" font-variant="normal" font-weight="400" font-stretch="normal" font-size="55" text-anchor="start" direction="ltr" writing-mode="lr-tb" unicode-bidi="normal" text-decoration="none" transform="matrix(1 0 0 1 808.441 1063)">Optometrist</text></g><g clip-path="url(#clip17)"><text fill="#595959" fill-opacity="1" font-family="Calibri,Calibri_MSFontService,sans-serif" font-style="normal" font-variant="normal" font-weight="400" font-stretch="normal" font-size="55" text-anchor="start" direction="ltr" writing-mode="lr-tb" unicode-bidi="normal" text-decoration="none" transform="matrix(1 0 0 1 1292.28 1063)">Analyst</text></g><g clip-path="url(#clip18)"><text fill="#595959" fill-opacity="1" font-family="Calibri,Calibri_MSFontService,sans-serif" font-style="normal" font-variant="normal" font-weight="400" font-stretch="normal" font-size="55" text-anchor="start" direction="ltr" writing-mode="lr-tb" unicode-bidi="normal" text-decoration="none" transform="matrix(1 0 0 1 1233.32 1130)">Programmer</text></g><g clip-path="url(#clip19)"><text fill="#595959" fill-opacity="1" font-family="Calibri,Calibri_MSFontService,sans-serif" font-style="normal" font-variant="normal" font-weight="400" font-stretch="normal" font-size="55" text-anchor="start" direction="ltr" writing-mode="lr-tb" unicode-bidi="normal" text-decoration="none" transform="matrix(1 0 0 1 1691.88 1063)">Help Desk</text></g><g clip-path="url(#clip20)"><text fill="#595959" fill-opacity="1" font-family="Calibri,Calibri_MSFontService,sans-serif" font-style="normal" font-variant="normal" font-weight="400" font-stretch="normal" font-size="64" text-anchor="start" direction="ltr" writing-mode="lr-tb" unicode-bidi="normal" text-decoration="none" transform="matrix(1 0 0 1 713.305 68)">Average Annual Salary (AUD)</text></g><rect x="0.499836" y="0.499836" width="2068" height="1175" stroke="#D9D9D9" stroke-width="3.4375" stroke-linecap="butt" stroke-linejoin="round" stroke-miterlimit="10" stroke-opacity="1" fill="none"/></g></svg>